<svg xmlns="http://www.w3.org/2000/svg" xmlns:svg="http://www.w3.org/2000/svg" xmlns:xlink="http://www.w3.org/1999/xlink" id="svg2" width="1920" height="1200" version="1.1" viewBox="0 0 1920 1200"><defs id="defs4"><linearGradient id="linearGradient4506"><stop id="stop4508" offset="0" stop-color="#000" stop-opacity="1"/><stop id="stop4510" offset="1" stop-color="#000" stop-opacity="0"/></linearGradient><radialGradient id="radialGradient4512" cx="148.178" cy="906.205" r="425" fx="148.178" fy="906.205" gradientTransform="matrix(0.96357223,0,0,0.96357223,-10.102229,48.510936)" gradientUnits="userSpaceOnUse" xlink:href="#linearGradient4506"/><filter id="filter4882" width="1.132" height="1.132" x="-.066" y="-.066" color-interpolation-filters="sRGB"><feGaussianBlur id="feGaussianBlur4884" stdDeviation="22.524"/></filter><filter id="filter4914" width="1.12" height="1.125" x="-.06" y="-.062" color-interpolation-filters="sRGB"><feGaussianBlur id="feGaussianBlur4916" stdDeviation="20.762"/></filter><filter id="filter4997" width="1.088" height="1.14" x="-.044" y="-.07" color-interpolation-filters="sRGB"><feGaussianBlur id="feGaussianBlur4999" stdDeviation="35.586"/></filter></defs><metadata id="metadata7"/><g id="layer1" transform="translate(0,147.63784)"><rect id="rect3336" width="1934.066" height="1213.451" x=".693" y="-153.498" fill="#4d4d4d" fill-rule="evenodd" stroke="#000" stroke-linecap="butt" stroke-linejoin="miter" stroke-opacity="1" stroke-width="1"/><path id="path3340" fill="#000" fill-rule="evenodd" stroke="none" stroke-linecap="butt" stroke-linejoin="miter" stroke-opacity="1" stroke-width="1" d="M 0,-153.76004 830.34539,-151.7993 0,644.26047 Z" filter="url(#filter4914)"/><path id="path3340-5" fill="#500" fill-rule="evenodd" stroke="none" stroke-linecap="butt" stroke-linejoin="miter" stroke-opacity="1" stroke-width="1" d="M -2.0203064,-154.77019 826.30482,-152.81441 -2.0203064,641.2301 Z"/><circle id="path4157" cx="132.678" cy="921.705" r="409.518" fill="#000" stroke="url(#radialGradient4512)" stroke-width=".964" filter="url(#filter4882)" transform="matrix(1.1726244,0,0,1.1573203,-17.619852,-218.36765)"/><ellipse id="path4157-1" cx="140.22" cy="846.111" fill="#333" stroke="none" rx="469.05" ry="462.928"/><path id="path4227" fill="none" fill-rule="evenodd" stroke="#000" stroke-linecap="butt" stroke-linejoin="miter" stroke-opacity="1" stroke-width="3.071" d="M 960.08293,-148.788 Z"/><path id="path4945" fill="#000" fill-rule="evenodd" stroke="none" stroke-linecap="butt" stroke-linejoin="miter" stroke-opacity="1" stroke-width="1" d="M -1.5003457,-85.241224 1145.0062,1066.6329 l 114.7361,-3.9613 675.9623,-832.53452 2.7652,-386.28693 -1940.4603249,1.01015 z" filter="url(#filter4997)"/><path id="path4174-3" fill="#4d4d4d" fill-opacity="1" fill-rule="evenodd" stroke="none" stroke-linecap="butt" stroke-linejoin="miter" stroke-opacity="1" stroke-width="1" d="M -7.5540586,-97.687852 586.15156,494.98821 1167.6597,-162.15484 -8.7516286,-163.16499 Z"/><path id="path4191-7" fill="#333" fill-rule="evenodd" stroke="none" stroke-linecap="butt" stroke-linejoin="miter" stroke-opacity="1" stroke-width="1" d="m 585.46282,494.38902 555.66358,561.77528 800.0001,-982.857322 5.7143,-257.142908 -777.1428,-5.71429 z"/><path id="path4208" fill="#500" fill-rule="evenodd" stroke="none" stroke-linecap="butt" stroke-linejoin="miter" stroke-opacity="1" stroke-width="1" d="M 1135.2288,1062.8628 1955.2435,56.332598 1953.815,134.90404 1182.3865,1092.047 Z"/><path id="path4208-2" fill="#ccc" fill-rule="evenodd" stroke="none" stroke-linecap="butt" stroke-linejoin="miter" stroke-opacity="1" stroke-width="1" d="m 1202.7872,1066.8481 758.9203,-942.10443 1.3707,64.16457 -728.5895,898.81896 z"/><rect id="rect6775-6-2" width="127.823" height="176.14" x="277.275" y="589.892" fill="#500" fill-opacity="1" ry=".417" transform="matrix(0.65122803,-0.7588821,0.71296032,0.70120438,0,0)"/><path id="path6808-4" fill="#ccc" fill-rule="evenodd" stroke="#000" stroke-dasharray="none" stroke-linecap="butt" stroke-linejoin="miter" stroke-miterlimit="4" stroke-opacity="1" stroke-width="0" d="m 691.5265,-58.509516 c -0.15916,1.575974 -79.4369,93.402718 -79.4369,93.402718 L 677.95964,99.677177 594.46315,196.62393 460.44098,64.785321 623.7767,-125.49871 Z"/><rect id="rect6775-6-5-0" width="110.426" height="267.08" x="416.965" y="498.265" fill="#ccc" fill-opacity="1" ry=".632" transform="matrix(0.65122803,-0.7588821,0.71296032,0.70120438,0,0)"/><rect id="rect6775-6-5-4-9" width="120.465" height="372.854" x="538.314" y="392.227" fill="#ccc" fill-opacity="1" ry=".882" transform="matrix(0.65122803,-0.7588821,0.71296032,0.70120438,0,0)"/><path id="path5235" fill="#ccc" fill-opacity="1" fill-rule="evenodd" stroke="none" stroke-linecap="butt" stroke-linejoin="miter" stroke-opacity="1" stroke-width="1" d="m 696.20037,296.85973 28.24379,-151.24089 -40.14955,-39.48758 -83.90407,96.49846 z"/><path id="path5252" fill="#500" fill-rule="evenodd" stroke="none" stroke-linecap="butt" stroke-linejoin="miter" stroke-opacity="1" stroke-width="1" d="M 727.15526,131.6103 751.5187,1.073509 889.06482,136.51222 l -71.84853,83.7876 z"/><path id="path5252-7" fill="#500" fill-rule="evenodd" stroke="none" stroke-linecap="butt" stroke-linejoin="miter" stroke-opacity="1" stroke-width="1" d="M 754.0212,-12.038002 780.52557,-154.24294 974.33991,36.419488 896.03506,127.76491 Z"/></g></svg>